<!DOCTYPE svg PUBLIC "-//W3C//DTD SVG 1.1//EN" "http://www.w3.org/Graphics/SVG/1.1/DTD/svg11.dtd">
<!-- Uploaded to: SVG Repo, www.svgrepo.com, Transformed by: SVG Repo Mixer Tools -->
<svg fill="#3B3B3B" width="800px" height="800px" viewBox="-1.9 -1.9 22.80 22.80" xmlns="http://www.w3.org/2000/svg" class="cf-icon-svg">
<g id="SVGRepo_bgCarrier" stroke-width="0">
<path transform="translate(-1.9, -1.9), scale(0.7125)" d="M16,30.427060024191935C17.974425069883562,30.283469831262977,19.440813026218972,28.595279725515347,21.25260595229488,27.797546127682473C23.07177969254783,26.99656275259104,25.47160849023143,27.201996542199822,26.760803714896866,25.689071184788357C28.055387476914138,24.169822149905105,27.965562621107,21.890633206688992,27.986757255446324,19.894733526257205C28.005218751629506,18.15621359039088,26.72460932253347,16.58893299627378,26.875831450871097,14.856904052477802C27.071977160754415,12.610340996832816,29.95880343042847,10.537498198953624,28.9811578397797,8.505325026810173C28.043758570416944,6.556809465540438,24.92529722965274,7.222671000129949,22.874061740327207,6.538665700411025C21.341095765533545,6.027482632204447,19.820296675610184,5.622582732203721,18.346796749274297,4.959189352538004C16.4988928552224,4.127233281375581,15.061488784960076,1.8795549562590557,13.048677568906182,2.1151196278968563C11.10178095664605,2.3429701374339245,10.345108951342262,4.883056663361796,8.790910961522535,6.0775401843726975C7.281001429673905,7.2379856783342955,4.858946119587686,7.372066043801847,3.998299365904561,9.070814908171688C3.1269166112904765,10.790754544843049,4.095462293841786,12.872346870209197,4.382467400647185,14.778948120470947C4.621342814893328,16.365819408330278,4.938701130897359,17.911862034520883,5.552368864413426,19.394641134928243C6.138727119331205,20.81143351011453,7.1897770948965,21.932633536579527,7.904541027227998,23.28918399953114C8.824274398752157,25.03474595991626,8.915929220155936,27.282228273365725,10.395860384549307,28.587103662395663C11.886915633089801,29.90178730736231,14.017363160878165,30.571247418578267,16,30.427060024191935" fill="#5FA5E7" strokewidth="0"/>
</g>
<g id="SVGRepo_tracerCarrier" stroke-linecap="round" stroke-linejoin="round"/>
<g id="SVGRepo_iconCarrier">
<path d="M10.594 1.975a8 8 0 0 1 1.895.795 7.857 7.857 0 0 1 1.604 1.237 8.05 8.05 0 0 1 1.241 1.6 7.909 7.909 0 0 1 0 7.991 8.021 8.021 0 0 1-2.845 2.845 7.888 7.888 0 0 1-4.007 1.082 7.825 7.825 0 0 1-3.985-1.082 8.039 8.039 0 0 1-1.599-1.241 7.848 7.848 0 0 1-1.237-1.604 8 8 0 0 1-.795-1.895 7.86 7.86 0 0 1-.283-2.112 7.782 7.782 0 0 1 .283-2.098 7.902 7.902 0 0 1 5.518-5.518 7.764 7.764 0 0 1 2.098-.283 7.848 7.848 0 0 1 2.112.283zM6.682 3.043A6.793 6.793 0 0 0 1.933 7.79a6.688 6.688 0 0 0-.241 1.8 6.764 6.764 0 0 0 .242 1.815 6.915 6.915 0 0 0 .685 1.634 6.775 6.775 0 0 0 1.063 1.378 6.975 6.975 0 0 0 1.38 1.071 6.822 6.822 0 0 0 5.235.686 6.789 6.789 0 0 0 3.012-1.757 6.925 6.925 0 0 0 1.07-1.382 6.785 6.785 0 0 0 .93-3.445 6.722 6.722 0 0 0-.929-3.42 6.967 6.967 0 0 0-1.07-1.38 6.77 6.77 0 0 0-1.38-1.063 6.936 6.936 0 0 0-1.633-.685A6.775 6.775 0 0 0 8.482 2.8a6.695 6.695 0 0 0-1.8.243zm2.84 10.095V6.58H8.106L5.948 8.164l.806 1.103 1.222-.945v4.816z"/>
</g>
</svg>