<!DOCTYPE svg PUBLIC "-//W3C//DTD SVG 1.1//EN" "http://www.w3.org/Graphics/SVG/1.1/DTD/svg11.dtd">
<!-- Uploaded to: SVG Repo, www.svgrepo.com, Transformed by: SVG Repo Mixer Tools -->
<svg fill="#3B3B3B" width="800px" height="800px" viewBox="-1.9 -1.9 22.80 22.80" xmlns="http://www.w3.org/2000/svg" class="cf-icon-svg" stroke="#3B3B3B" stroke-width="0.00019">
<g id="SVGRepo_bgCarrier" stroke-width="0" transform="translate(0,0), scale(1)">
<path transform="translate(-1.9, -1.9), scale(0.7125)" d="M16,28.09192967787385C18.807406008234274,28.601894293812375,21.898638108328825,27.431553322454718,23.82919788221711,25.33047470326322C25.65195398224403,23.346721637667095,25.39870715182724,20.375037529214726,25.561459751641316,17.685943329172424C25.701884551930615,15.365762168125372,25.52472257157577,13.150677961663334,24.697837421434045,10.978301223367456C23.6953905015653,8.344691985463044,22.985403079584906,5.044736733235571,20.360042790931658,4.020880884059366C17.72745034226755,2.9942045879672454,15.065245465069339,5.1718359868512405,12.431060870519286,6.1944203303437C9.876884040324597,7.1859458454773195,6.984353770341786,7.652769089062849,5.346401019429424,9.849141760729248C3.5859797047072095,12.209735657055733,2.4341553550480652,15.453035726817355,3.470994866077513,18.209201646545402C4.465205986954601,20.852051170726227,8.024831920467218,21.113597003088987,10.241820635899654,22.862330943968423C12.340868178850236,24.51803431148028,13.369591494502846,27.61411661509175,16,28.09192967787385" fill="#5FA5E7" strokewidth="0"/>
</g>
<g id="SVGRepo_tracerCarrier" stroke-linecap="round" stroke-linejoin="round" stroke="#CCCCCC" stroke-width="0.304"/>
<g id="SVGRepo_iconCarrier">
<path d="M10.59 1.966a7.95 7.95 0 0 1 5.544 5.532 7.906 7.906 0 0 1 0 4.192 7.91 7.91 0 0 1-2.04 3.494 8.06 8.06 0 0 1-1.61 1.246 7.882 7.882 0 0 1-1.895.804 7.82 7.82 0 0 1-6.079-.804 8.115 8.115 0 0 1-1.603-1.246A7.914 7.914 0 0 1 .866 11.69a7.923 7.923 0 0 1 0-4.193 7.96 7.96 0 0 1 5.53-5.53 7.907 7.907 0 0 1 4.193 0zM6.695 3.034a6.849 6.849 0 0 0-1.624.687A6.919 6.919 0 0 0 2.62 6.173a6.847 6.847 0 0 0-.688 1.624 6.806 6.806 0 0 0 0 3.595 6.811 6.811 0 0 0 .688 1.627A6.918 6.918 0 0 0 3.69 14.4a7.052 7.052 0 0 0 1.385 1.076 6.763 6.763 0 0 0 1.62.69 6.81 6.81 0 0 0 3.595 0 6.828 6.828 0 0 0 1.631-.692 6.998 6.998 0 0 0 1.387-1.074 6.916 6.916 0 0 0 1.07-1.382 6.816 6.816 0 0 0 .687-1.627 6.802 6.802 0 0 0 0-3.595 6.846 6.846 0 0 0-4.775-4.763 6.798 6.798 0 0 0-3.595 0zm4.33 8.817v-1.26h-.908V6.572h-1.86l-2.668 3.973v1.306h3.084v1.278h1.455v-1.278zm-2.344-1.26H7.1l1.556-2.426h.027z"/>
</g>
</svg>